# Tiled2Unity generated file. Do not modify by hand.
# Wavefront file for 'mapateste_mesh_0008.obj'

# Vertices (Count = 24)
v -1264 -688 0
v -1280 -688 0
v -1280 -672 0
v -1264 -672 0
v -1328 -688 0
v -1344 -688 0
v -1344 -672 0
v -1328 -672 0
v -1392 -688 0
v -1408 -688 0
v -1408 -672 0
v -1392 -672 0
v -1456 -688 0
v -1472 -688 0
v -1472 -672 0
v -1456 -672 0
v -1520 -688 0
v -1536 -688 0
v -1536 -672 0
v -1520 -672 0
v -1584 -688 0
v -1600 -688 0
v -1600 -672 0
v -1584 -672 0

# Texture cooridinates (Count = 6)
vt 0.2424242 0.030303
vt 0.4848485 0.030303
vt 0.4848485 0.5151515
vt 0.2424242 0.5151515
vt 0 0.030303
vt 0 0.5151515

# Normal
vn 0 0 -1

# Mesh description
g mapateste_mesh_0008

# Faces
f 1/1/1 2/2/1 3/3/1 4/4/1
f 5/5/1 6/1/1 7/4/1 8/6/1
f 9/1/1 10/2/1 11/3/1 12/4/1
f 13/5/1 14/1/1 15/4/1 16/6/1
f 17/1/1 18/2/1 19/3/1 20/4/1
f 21/5/1 22/1/1 23/4/1 24/6/1

