# Tiled2Unity generated file. Do not modify by hand.
# Wavefront file for 'mapateste_mesh_0009.obj'

# Vertices (Count = 108)
v -1280 -704 0
v -1296 -704 0
v -1296 -688 0
v -1280 -688 0
v -1296 -704 0
v -1312 -704 0
v -1312 -688 0
v -1296 -688 0
v -1312 -704 0
v -1328 -704 0
v -1328 -688 0
v -1312 -688 0
v -1344 -704 0
v -1360 -704 0
v -1360 -688 0
v -1344 -688 0
v -1360 -704 0
v -1376 -704 0
v -1376 -688 0
v -1360 -688 0
v -1376 -704 0
v -1392 -704 0
v -1392 -688 0
v -1376 -688 0
v -1408 -704 0
v -1424 -704 0
v -1424 -688 0
v -1408 -688 0
v -1424 -704 0
v -1440 -704 0
v -1440 -688 0
v -1424 -688 0
v -1440 -704 0
v -1456 -704 0
v -1456 -688 0
v -1440 -688 0
v -1472 -704 0
v -1488 -704 0
v -1488 -688 0
v -1472 -688 0
v -1488 -704 0
v -1504 -704 0
v -1504 -688 0
v -1488 -688 0
v -1504 -704 0
v -1520 -704 0
v -1520 -688 0
v -1504 -688 0
v -1536 -704 0
v -1552 -704 0
v -1552 -688 0
v -1536 -688 0
v -1552 -704 0
v -1568 -704 0
v -1568 -688 0
v -1552 -688 0
v -1568 -704 0
v -1584 -704 0
v -1584 -688 0
v -1568 -688 0
v -1408 -768 0
v -1424 -768 0
v -1424 -752 0
v -1408 -752 0
v -1424 -768 0
v -1440 -768 0
v -1440 -752 0
v -1424 -752 0
v -1440 -768 0
v -1456 -768 0
v -1456 -752 0
v -1440 -752 0
v -1408 -784 0
v -1424 -784 0
v -1424 -768 0
v -1408 -768 0
v -1424 -784 0
v -1440 -784 0
v -1440 -768 0
v -1424 -768 0
v -1440 -784 0
v -1456 -784 0
v -1456 -768 0
v -1440 -768 0
v -1408 -800 0
v -1424 -800 0
v -1424 -784 0
v -1408 -784 0
v -1424 -800 0
v -1440 -800 0
v -1440 -784 0
v -1424 -784 0
v -1440 -800 0
v -1456 -800 0
v -1456 -784 0
v -1440 -784 0
v -1408 -816 0
v -1424 -816 0
v -1424 -800 0
v -1408 -800 0
v -1424 -816 0
v -1440 -816 0
v -1440 -800 0
v -1424 -800 0
v -1440 -816 0
v -1456 -816 0
v -1456 -800 0
v -1440 -800 0

# Texture cooridinates (Count = 32)
vt 0 0.6363636
vt 0.125 0.6363636
vt 0.125 0.6818182
vt 0 0.6818182
vt 0.25 0.6363636
vt 0.25 0.6818182
vt 0.375 0.6363636
vt 0.375 0.6818182
vt 0 0.4090909
vt 0.125 0.4090909
vt 0.125 0.4545454
vt 0 0.4545454
vt 0.75 0.6363636
vt 0.875 0.6363636
vt 0.875 0.6818182
vt 0.75 0.6818182
vt 0 0.3181818
vt 0.125 0.3181818
vt 0.125 0.3636364
vt 0 0.3636364
vt 0.25 0.3181818
vt 0.25 0.3636364
vt 0.375 0.3181818
vt 0.375 0.3636364
vt 0 0.2727273
vt 0.125 0.2727273
vt 0.25 0.2727273
vt 0.375 0.2727273
vt 0 0.2272727
vt 0.125 0.2272727
vt 0.25 0.2272727
vt 0.375 0.2272727

# Normal
vn 0 0 -1

# Mesh description
g mapateste_mesh_0009

# Faces
f 1/1/1 2/2/1 3/3/1 4/4/1
f 5/2/1 6/5/1 7/6/1 8/3/1
f 9/5/1 10/7/1 11/8/1 12/6/1
f 13/1/1 14/2/1 15/3/1 16/4/1
f 17/2/1 18/5/1 19/6/1 20/3/1
f 21/5/1 22/7/1 23/8/1 24/6/1
f 25/1/1 26/2/1 27/3/1 28/4/1
f 29/2/1 30/5/1 31/6/1 32/3/1
f 33/5/1 34/7/1 35/8/1 36/6/1
f 37/1/1 38/2/1 39/3/1 40/4/1
f 41/2/1 42/5/1 43/6/1 44/3/1
f 45/5/1 46/7/1 47/8/1 48/6/1
f 49/1/1 50/2/1 51/3/1 52/4/1
f 53/2/1 54/5/1 55/6/1 56/3/1
f 57/5/1 58/7/1 59/8/1 60/6/1
f 61/9/1 62/10/1 63/11/1 64/12/1
f 65/13/1 66/14/1 67/15/1 68/16/1
f 69/9/1 70/10/1 71/11/1 72/12/1
f 73/17/1 74/18/1 75/19/1 76/20/1
f 77/18/1 78/21/1 79/22/1 80/19/1
f 81/21/1 82/23/1 83/24/1 84/22/1
f 85/25/1 86/26/1 87/18/1 88/17/1
f 89/26/1 90/27/1 91/21/1 92/18/1
f 93/27/1 94/28/1 95/23/1 96/21/1
f 97/29/1 98/30/1 99/26/1 100/25/1
f 101/30/1 102/31/1 103/27/1 104/26/1
f 105/31/1 106/32/1 107/28/1 108/27/1

