# Tiled2Unity generated file. Do not modify by hand.
# Wavefront file for 'mapateste_mesh_0002.obj'

# Vertices (Count = 412)
v -912 -736 0
v -928 -736 0
v -928 -720 0
v -912 -720 0
v -928 -736 0
v -944 -736 0
v -944 -720 0
v -928 -720 0
v -944 -736 0
v -960 -736 0
v -960 -720 0
v -944 -720 0
v -960 -736 0
v -976 -736 0
v -976 -720 0
v -960 -720 0
v -976 -736 0
v -992 -736 0
v -992 -720 0
v -976 -720 0
v -992 -736 0
v -1008 -736 0
v -1008 -720 0
v -992 -720 0
v -1008 -736 0
v -1024 -736 0
v -1024 -720 0
v -1008 -720 0
v -1024 -736 0
v -1040 -736 0
v -1040 -720 0
v -1024 -720 0
v -1040 -736 0
v -1056 -736 0
v -1056 -720 0
v -1040 -720 0
v -1056 -736 0
v -1072 -736 0
v -1072 -720 0
v -1056 -720 0
v -1072 -736 0
v -1088 -736 0
v -1088 -720 0
v -1072 -720 0
v -1088 -736 0
v -1104 -736 0
v -1104 -720 0
v -1088 -720 0
v -1104 -736 0
v -1120 -736 0
v -1120 -720 0
v -1104 -720 0
v -912 -752 0
v -928 -752 0
v -928 -736 0
v -912 -736 0
v -1104 -752 0
v -1120 -752 0
v -1120 -736 0
v -1104 -736 0
v -912 -768 0
v -928 -768 0
v -928 -752 0
v -912 -752 0
v -1104 -768 0
v -1120 -768 0
v -1120 -752 0
v -1104 -752 0
v -912 -784 0
v -928 -784 0
v -928 -768 0
v -912 -768 0
v -1104 -784 0
v -1120 -784 0
v -1120 -768 0
v -1104 -768 0
v -912 -800 0
v -928 -800 0
v -928 -784 0
v -912 -784 0
v -1088 -800 0
v -1104 -800 0
v -1104 -784 0
v -1088 -784 0
v -1104 -800 0
v -1120 -800 0
v -1120 -784 0
v -1104 -784 0
v -912 -816 0
v -928 -816 0
v -928 -800 0
v -912 -800 0
v -1104 -816 0
v -1120 -816 0
v -1120 -800 0
v -1104 -800 0
v -912 -832 0
v -928 -832 0
v -928 -816 0
v -912 -816 0
v -1008 -832 0
v -1024 -832 0
v -1024 -816 0
v -1008 -816 0
v -1024 -832 0
v -1040 -832 0
v -1040 -816 0
v -1024 -816 0
v -1104 -832 0
v -1120 -832 0
v -1120 -816 0
v -1104 -816 0
v -912 -848 0
v -928 -848 0
v -928 -832 0
v -912 -832 0
v -976 -848 0
v -992 -848 0
v -992 -832 0
v -976 -832 0
v -992 -848 0
v -1008 -848 0
v -1008 -832 0
v -992 -832 0
v -1008 -848 0
v -1024 -848 0
v -1024 -832 0
v -1008 -832 0
v -1024 -848 0
v -1040 -848 0
v -1040 -832 0
v -1024 -832 0
v -1040 -848 0
v -1056 -848 0
v -1056 -832 0
v -1040 -832 0
v -1104 -848 0
v -1120 -848 0
v -1120 -832 0
v -1104 -832 0
v -912 -864 0
v -928 -864 0
v -928 -848 0
v -912 -848 0
v -976 -864 0
v -992 -864 0
v -992 -848 0
v -976 -848 0
v -992 -864 0
v -1008 -864 0
v -1008 -848 0
v -992 -848 0
v -1008 -864 0
v -1024 -864 0
v -1024 -848 0
v -1008 -848 0
v -1024 -864 0
v -1040 -864 0
v -1040 -848 0
v -1024 -848 0
v -1040 -864 0
v -1056 -864 0
v -1056 -848 0
v -1040 -848 0
v -1104 -864 0
v -1120 -864 0
v -1120 -848 0
v -1104 -848 0
v -912 -880 0
v -928 -880 0
v -928 -864 0
v -912 -864 0
v -976 -880 0
v -992 -880 0
v -992 -864 0
v -976 -864 0
v -992 -880 0
v -1008 -880 0
v -1008 -864 0
v -992 -864 0
v -1008 -880 0
v -1024 -880 0
v -1024 -864 0
v -1008 -864 0
v -1024 -880 0
v -1040 -880 0
v -1040 -864 0
v -1024 -864 0
v -1040 -880 0
v -1056 -880 0
v -1056 -864 0
v -1040 -864 0
v -1104 -880 0
v -1120 -880 0
v -1120 -864 0
v -1104 -864 0
v -912 -896 0
v -928 -896 0
v -928 -880 0
v -912 -880 0
v -976 -896 0
v -992 -896 0
v -992 -880 0
v -976 -880 0
v -992 -896 0
v -1008 -896 0
v -1008 -880 0
v -992 -880 0
v -1008 -896 0
v -1024 -896 0
v -1024 -880 0
v -1008 -880 0
v -1024 -896 0
v -1040 -896 0
v -1040 -880 0
v -1024 -880 0
v -1040 -896 0
v -1056 -896 0
v -1056 -880 0
v -1040 -880 0
v -1104 -896 0
v -1120 -896 0
v -1120 -880 0
v -1104 -880 0
v -912 -912 0
v -928 -912 0
v -928 -896 0
v -912 -896 0
v -976 -912 0
v -992 -912 0
v -992 -896 0
v -976 -896 0
v -992 -912 0
v -1008 -912 0
v -1008 -896 0
v -992 -896 0
v -1008 -912 0
v -1024 -912 0
v -1024 -896 0
v -1008 -896 0
v -1024 -912 0
v -1040 -912 0
v -1040 -896 0
v -1024 -896 0
v -1040 -912 0
v -1056 -912 0
v -1056 -896 0
v -1040 -896 0
v -1104 -912 0
v -1120 -912 0
v -1120 -896 0
v -1104 -896 0
v -912 -928 0
v -928 -928 0
v -928 -912 0
v -912 -912 0
v -976 -928 0
v -992 -928 0
v -992 -912 0
v -976 -912 0
v -992 -928 0
v -1008 -928 0
v -1008 -912 0
v -992 -912 0
v -1008 -928 0
v -1024 -928 0
v -1024 -912 0
v -1008 -912 0
v -1024 -928 0
v -1040 -928 0
v -1040 -912 0
v -1024 -912 0
v -1040 -928 0
v -1056 -928 0
v -1056 -912 0
v -1040 -912 0
v -1104 -928 0
v -1120 -928 0
v -1120 -912 0
v -1104 -912 0
v -912 -944 0
v -928 -944 0
v -928 -928 0
v -912 -928 0
v -976 -944 0
v -992 -944 0
v -992 -928 0
v -976 -928 0
v -992 -944 0
v -1008 -944 0
v -1008 -928 0
v -992 -928 0
v -1008 -944 0
v -1024 -944 0
v -1024 -928 0
v -1008 -928 0
v -1024 -944 0
v -1040 -944 0
v -1040 -928 0
v -1024 -928 0
v -1040 -944 0
v -1056 -944 0
v -1056 -928 0
v -1040 -928 0
v -1104 -944 0
v -1120 -944 0
v -1120 -928 0
v -1104 -928 0
v -1120 -944 0
v -1136 -944 0
v -1136 -928 0
v -1120 -928 0
v -912 -960 0
v -928 -960 0
v -928 -944 0
v -912 -944 0
v -1104 -960 0
v -1120 -960 0
v -1120 -944 0
v -1104 -944 0
v -912 -976 0
v -928 -976 0
v -928 -960 0
v -912 -960 0
v -1104 -976 0
v -1120 -976 0
v -1120 -960 0
v -1104 -960 0
v -912 -992 0
v -928 -992 0
v -928 -976 0
v -912 -976 0
v -1104 -992 0
v -1120 -992 0
v -1120 -976 0
v -1104 -976 0
v -912 -1008 0
v -928 -1008 0
v -928 -992 0
v -912 -992 0
v -1104 -1008 0
v -1120 -1008 0
v -1120 -992 0
v -1104 -992 0
v -880 -1024 0
v -896 -1024 0
v -896 -1008 0
v -880 -1008 0
v -896 -1024 0
v -912 -1024 0
v -912 -1008 0
v -896 -1008 0
v -912 -1024 0
v -928 -1024 0
v -928 -1008 0
v -912 -1008 0
v -928 -1024 0
v -944 -1024 0
v -944 -1008 0
v -928 -1008 0
v -944 -1024 0
v -960 -1024 0
v -960 -1008 0
v -944 -1008 0
v -960 -1024 0
v -976 -1024 0
v -976 -1008 0
v -960 -1008 0
v -976 -1024 0
v -992 -1024 0
v -992 -1008 0
v -976 -1008 0
v -992 -1024 0
v -1008 -1024 0
v -1008 -1008 0
v -992 -1008 0
v -1008 -1024 0
v -1024 -1024 0
v -1024 -1008 0
v -1008 -1008 0
v -1024 -1024 0
v -1040 -1024 0
v -1040 -1008 0
v -1024 -1008 0
v -1040 -1024 0
v -1056 -1024 0
v -1056 -1008 0
v -1040 -1008 0
v -1056 -1024 0
v -1072 -1024 0
v -1072 -1008 0
v -1056 -1008 0
v -1072 -1024 0
v -1088 -1024 0
v -1088 -1008 0
v -1072 -1008 0
v -1088 -1024 0
v -1104 -1024 0
v -1104 -1008 0
v -1088 -1008 0
v -1104 -1024 0
v -1120 -1024 0
v -1120 -1008 0
v -1104 -1008 0
v -1120 -1024 0
v -1136 -1024 0
v -1136 -1008 0
v -1120 -1008 0
v -1136 -1024 0
v -1152 -1024 0
v -1152 -1008 0
v -1136 -1008 0

# Texture cooridinates (Count = 20)
vt 0 0.7435898
vt 0.04761905 0.7435898
vt 0.04761905 0.7692308
vt 0 0.7692308
vt 0.0952381 0.7435898
vt 0.0952381 0.7692308
vt 0.1428571 0.7435898
vt 0.1428571 0.7692308
vt 0 0.7179487
vt 0.04761905 0.7179487
vt 0.0952381 0.7179487
vt 0.1428571 0.7179487
vt 0.04761905 0.6410257
vt 0.0952381 0.6410257
vt 0.0952381 0.6666666
vt 0.04761905 0.6666666
vt 0 0.6923077
vt 0.04761905 0.6923077
vt 0.0952381 0.6923077
vt 0.1428571 0.6923077

# Normal
vn 0 0 -1

# Mesh description
g mapateste_mesh_0002

# Faces
f 1/1/1 2/2/1 3/3/1 4/4/1
f 5/2/1 6/5/1 7/6/1 8/3/1
f 9/2/1 10/5/1 11/6/1 12/3/1
f 13/2/1 14/5/1 15/6/1 16/3/1
f 17/2/1 18/5/1 19/6/1 20/3/1
f 21/2/1 22/5/1 23/6/1 24/3/1
f 25/2/1 26/5/1 27/6/1 28/3/1
f 29/2/1 30/5/1 31/6/1 32/3/1
f 33/2/1 34/5/1 35/6/1 36/3/1
f 37/2/1 38/5/1 39/6/1 40/3/1
f 41/2/1 42/5/1 43/6/1 44/3/1
f 45/2/1 46/5/1 47/6/1 48/3/1
f 49/5/1 50/7/1 51/8/1 52/6/1
f 53/9/1 54/10/1 55/2/1 56/1/1
f 57/11/1 58/12/1 59/7/1 60/5/1
f 61/9/1 62/10/1 63/2/1 64/1/1
f 65/11/1 66/12/1 67/7/1 68/5/1
f 69/9/1 70/10/1 71/2/1 72/1/1
f 73/11/1 74/12/1 75/7/1 76/5/1
f 77/9/1 78/10/1 79/2/1 80/1/1
f 81/13/1 82/14/1 83/15/1 84/16/1
f 85/11/1 86/12/1 87/7/1 88/5/1
f 89/9/1 90/10/1 91/2/1 92/1/1
f 93/11/1 94/12/1 95/7/1 96/5/1
f 97/9/1 98/10/1 99/2/1 100/1/1
f 101/13/1 102/14/1 103/15/1 104/16/1
f 105/13/1 106/14/1 107/15/1 108/16/1
f 109/11/1 110/12/1 111/7/1 112/5/1
f 113/9/1 114/10/1 115/2/1 116/1/1
f 117/1/1 118/2/1 119/3/1 120/4/1
f 121/2/1 122/5/1 123/6/1 124/3/1
f 125/2/1 126/5/1 127/6/1 128/3/1
f 129/2/1 130/5/1 131/6/1 132/3/1
f 133/5/1 134/7/1 135/8/1 136/6/1
f 137/11/1 138/12/1 139/7/1 140/5/1
f 141/9/1 142/10/1 143/2/1 144/1/1
f 145/9/1 146/10/1 147/2/1 148/1/1
f 149/10/1 150/11/1 151/5/1 152/2/1
f 153/10/1 154/11/1 155/5/1 156/2/1
f 157/10/1 158/11/1 159/5/1 160/2/1
f 161/11/1 162/12/1 163/7/1 164/5/1
f 165/11/1 166/12/1 167/7/1 168/5/1
f 169/9/1 170/10/1 171/2/1 172/1/1
f 173/9/1 174/10/1 175/2/1 176/1/1
f 177/10/1 178/11/1 179/5/1 180/2/1
f 181/10/1 182/11/1 183/5/1 184/2/1
f 185/10/1 186/11/1 187/5/1 188/2/1
f 189/11/1 190/12/1 191/7/1 192/5/1
f 193/11/1 194/12/1 195/7/1 196/5/1
f 197/9/1 198/10/1 199/2/1 200/1/1
f 201/9/1 202/10/1 203/2/1 204/1/1
f 205/10/1 206/11/1 207/5/1 208/2/1
f 209/10/1 210/11/1 211/5/1 212/2/1
f 213/10/1 214/11/1 215/5/1 216/2/1
f 217/11/1 218/12/1 219/7/1 220/5/1
f 221/11/1 222/12/1 223/7/1 224/5/1
f 225/9/1 226/10/1 227/2/1 228/1/1
f 229/9/1 230/10/1 231/2/1 232/1/1
f 233/10/1 234/11/1 235/5/1 236/2/1
f 237/10/1 238/11/1 239/5/1 240/2/1
f 241/10/1 242/11/1 243/5/1 244/2/1
f 245/11/1 246/12/1 247/7/1 248/5/1
f 249/11/1 250/12/1 251/7/1 252/5/1
f 253/9/1 254/10/1 255/2/1 256/1/1
f 257/9/1 258/10/1 259/2/1 260/1/1
f 261/10/1 262/11/1 263/5/1 264/2/1
f 265/10/1 266/11/1 267/5/1 268/2/1
f 269/10/1 270/11/1 271/5/1 272/2/1
f 273/11/1 274/12/1 275/7/1 276/5/1
f 277/11/1 278/12/1 279/7/1 280/5/1
f 281/9/1 282/10/1 283/2/1 284/1/1
f 285/17/1 286/18/1 287/10/1 288/9/1
f 289/18/1 290/19/1 291/11/1 292/10/1
f 293/18/1 294/19/1 295/11/1 296/10/1
f 297/18/1 298/19/1 299/11/1 300/10/1
f 301/19/1 302/20/1 303/12/1 304/11/1
f 305/11/1 306/12/1 307/7/1 308/5/1
f 309/10/1 310/11/1 311/5/1 312/2/1
f 313/9/1 314/10/1 315/2/1 316/1/1
f 317/11/1 318/12/1 319/7/1 320/5/1
f 321/9/1 322/10/1 323/2/1 324/1/1
f 325/11/1 326/12/1 327/7/1 328/5/1
f 329/9/1 330/10/1 331/2/1 332/1/1
f 333/11/1 334/12/1 335/7/1 336/5/1
f 337/9/1 338/10/1 339/2/1 340/1/1
f 341/11/1 342/12/1 343/7/1 344/5/1
f 345/10/1 346/11/1 347/5/1 348/2/1
f 349/10/1 350/11/1 351/5/1 352/2/1
f 353/17/1 354/18/1 355/10/1 356/9/1
f 357/18/1 358/19/1 359/11/1 360/10/1
f 361/18/1 362/19/1 363/11/1 364/10/1
f 365/18/1 366/19/1 367/11/1 368/10/1
f 369/18/1 370/19/1 371/11/1 372/10/1
f 373/18/1 374/19/1 375/11/1 376/10/1
f 377/18/1 378/19/1 379/11/1 380/10/1
f 381/18/1 382/19/1 383/11/1 384/10/1
f 385/18/1 386/19/1 387/11/1 388/10/1
f 389/18/1 390/19/1 391/11/1 392/10/1
f 393/18/1 394/19/1 395/11/1 396/10/1
f 397/18/1 398/19/1 399/11/1 400/10/1
f 401/19/1 402/20/1 403/12/1 404/11/1
f 405/10/1 406/11/1 407/5/1 408/2/1
f 409/10/1 410/11/1 411/5/1 412/2/1

