# Tiled2Unity generated file. Do not modify by hand.
# Wavefront file for 'mapateste_mesh_0012.obj'

# Vertices (Count = 112)
v -864 -720 0
v -880 -720 0
v -880 -704 0
v -864 -704 0
v -928 -720 0
v -944 -720 0
v -944 -704 0
v -928 -704 0
v -992 -720 0
v -1008 -720 0
v -1008 -704 0
v -992 -704 0
v -1056 -720 0
v -1072 -720 0
v -1072 -704 0
v -1056 -704 0
v -912 -768 0
v -928 -768 0
v -928 -752 0
v -912 -752 0
v -912 -784 0
v -928 -784 0
v -928 -768 0
v -912 -768 0
v -912 -800 0
v -928 -800 0
v -928 -784 0
v -912 -784 0
v -912 -816 0
v -928 -816 0
v -928 -800 0
v -912 -800 0
v -912 -832 0
v -928 -832 0
v -928 -816 0
v -912 -816 0
v -912 -848 0
v -928 -848 0
v -928 -832 0
v -912 -832 0
v -912 -864 0
v -928 -864 0
v -928 -848 0
v -912 -848 0
v -1040 -864 0
v -1056 -864 0
v -1056 -848 0
v -1040 -848 0
v -912 -880 0
v -928 -880 0
v -928 -864 0
v -912 -864 0
v -1040 -880 0
v -1056 -880 0
v -1056 -864 0
v -1040 -864 0
v -912 -896 0
v -928 -896 0
v -928 -880 0
v -912 -880 0
v -1040 -896 0
v -1056 -896 0
v -1056 -880 0
v -1040 -880 0
v -912 -912 0
v -928 -912 0
v -928 -896 0
v -912 -896 0
v -1040 -912 0
v -1056 -912 0
v -1056 -896 0
v -1040 -896 0
v -912 -928 0
v -928 -928 0
v -928 -912 0
v -912 -912 0
v -1040 -928 0
v -1056 -928 0
v -1056 -912 0
v -1040 -912 0
v -912 -944 0
v -928 -944 0
v -928 -928 0
v -912 -928 0
v -1040 -944 0
v -1056 -944 0
v -1056 -928 0
v -1040 -928 0
v -912 -960 0
v -928 -960 0
v -928 -944 0
v -912 -944 0
v -1040 -960 0
v -1056 -960 0
v -1056 -944 0
v -1040 -944 0
v -912 -976 0
v -928 -976 0
v -928 -960 0
v -912 -960 0
v -912 -992 0
v -928 -992 0
v -928 -976 0
v -912 -976 0
v -912 -1008 0
v -928 -1008 0
v -928 -992 0
v -912 -992 0
v -912 -1024 0
v -928 -1024 0
v -928 -1008 0
v -912 -1008 0

# Texture cooridinates (Count = 30)
vt 0.875 0.4814815
vt 1 0.4814815
vt 1 0.5185185
vt 0.875 0.5185185
vt 0.375 0.6296296
vt 0.5 0.6296296
vt 0.5 0.6666666
vt 0.375 0.6666666
vt 0.625 0.6666666
vt 0.75 0.6666666
vt 0.75 0.7037037
vt 0.625 0.7037037
vt 0.75 0.8888889
vt 0.875 0.8888889
vt 0.875 0.9259259
vt 0.75 0.9259259
vt 0.5 0.8148148
vt 0.625 0.8148148
vt 0.625 0.8518518
vt 0.5 0.8518518
vt 0.25 0.8518518
vt 0.375 0.8518518
vt 0.375 0.8888889
vt 0.25 0.8888889
vt 0.5 0.8888889
vt 0.75 0.8518518
vt 0.625 0.8888889
vt 0.875 0.8518518
vt 1 0.8518518
vt 1 0.8888889

# Normal
vn 0 0 -1

# Mesh description
g mapateste_mesh_0012

# Faces
f 1/1/1 2/2/1 3/3/1 4/4/1
f 5/5/1 6/6/1 7/7/1 8/8/1
f 9/9/1 10/10/1 11/11/1 12/12/1
f 13/13/1 14/14/1 15/15/1 16/16/1
f 17/17/1 18/18/1 19/19/1 20/20/1
f 21/17/1 22/18/1 23/19/1 24/20/1
f 25/17/1 26/18/1 27/19/1 28/20/1
f 29/17/1 30/18/1 31/19/1 32/20/1
f 33/17/1 34/18/1 35/19/1 36/20/1
f 37/17/1 38/18/1 39/19/1 40/20/1
f 41/17/1 42/18/1 43/19/1 44/20/1
f 45/21/1 46/22/1 47/23/1 48/24/1
f 49/17/1 50/18/1 51/19/1 52/20/1
f 53/22/1 54/20/1 55/25/1 56/23/1
f 57/17/1 58/18/1 59/19/1 60/20/1
f 61/19/1 62/26/1 63/13/1 64/27/1
f 65/17/1 66/18/1 67/19/1 68/20/1
f 69/21/1 70/22/1 71/23/1 72/24/1
f 73/17/1 74/18/1 75/19/1 76/20/1
f 77/26/1 78/28/1 79/14/1 80/13/1
f 81/17/1 82/18/1 83/19/1 84/20/1
f 85/20/1 86/19/1 87/27/1 88/25/1
f 89/17/1 90/18/1 91/19/1 92/20/1
f 93/28/1 94/29/1 95/30/1 96/14/1
f 97/17/1 98/18/1 99/19/1 100/20/1
f 101/17/1 102/18/1 103/19/1 104/20/1
f 105/17/1 106/18/1 107/19/1 108/20/1
f 109/17/1 110/18/1 111/19/1 112/20/1

