# Tiled2Unity generated file. Do not modify by hand.
# Wavefront file for 'mapadefenitivo_mesh_0051.obj'

# Vertices (Count = 1024)
v 0 -16 0
v -16 -16 0
v -16 0 0
v 0 0 0
v -16 -16 0
v -32 -16 0
v -32 0 0
v -16 0 0
v -32 -16 0
v -48 -16 0
v -48 0 0
v -32 0 0
v -48 -16 0
v -64 -16 0
v -64 0 0
v -48 0 0
v -64 -16 0
v -80 -16 0
v -80 0 0
v -64 0 0
v -80 -16 0
v -96 -16 0
v -96 0 0
v -80 0 0
v -96 -16 0
v -112 -16 0
v -112 0 0
v -96 0 0
v -112 -16 0
v -128 -16 0
v -128 0 0
v -112 0 0
v -128 -16 0
v -144 -16 0
v -144 0 0
v -128 0 0
v -144 -16 0
v -160 -16 0
v -160 0 0
v -144 0 0
v -160 -16 0
v -176 -16 0
v -176 0 0
v -160 0 0
v -176 -16 0
v -192 -16 0
v -192 0 0
v -176 0 0
v -192 -16 0
v -208 -16 0
v -208 0 0
v -192 0 0
v -208 -16 0
v -224 -16 0
v -224 0 0
v -208 0 0
v -224 -16 0
v -240 -16 0
v -240 0 0
v -224 0 0
v -240 -16 0
v -256 -16 0
v -256 0 0
v -240 0 0
v 0 -32 0
v -16 -32 0
v -16 -16 0
v 0 -16 0
v -16 -32 0
v -32 -32 0
v -32 -16 0
v -16 -16 0
v -32 -32 0
v -48 -32 0
v -48 -16 0
v -32 -16 0
v -48 -32 0
v -64 -32 0
v -64 -16 0
v -48 -16 0
v -64 -32 0
v -80 -32 0
v -80 -16 0
v -64 -16 0
v -80 -32 0
v -96 -32 0
v -96 -16 0
v -80 -16 0
v -96 -32 0
v -112 -32 0
v -112 -16 0
v -96 -16 0
v -112 -32 0
v -128 -32 0
v -128 -16 0
v -112 -16 0
v -128 -32 0
v -144 -32 0
v -144 -16 0
v -128 -16 0
v -144 -32 0
v -160 -32 0
v -160 -16 0
v -144 -16 0
v -160 -32 0
v -176 -32 0
v -176 -16 0
v -160 -16 0
v -176 -32 0
v -192 -32 0
v -192 -16 0
v -176 -16 0
v -192 -32 0
v -208 -32 0
v -208 -16 0
v -192 -16 0
v -208 -32 0
v -224 -32 0
v -224 -16 0
v -208 -16 0
v -224 -32 0
v -240 -32 0
v -240 -16 0
v -224 -16 0
v -240 -32 0
v -256 -32 0
v -256 -16 0
v -240 -16 0
v 0 -48 0
v -16 -48 0
v -16 -32 0
v 0 -32 0
v -16 -48 0
v -32 -48 0
v -32 -32 0
v -16 -32 0
v -32 -48 0
v -48 -48 0
v -48 -32 0
v -32 -32 0
v -48 -48 0
v -64 -48 0
v -64 -32 0
v -48 -32 0
v -64 -48 0
v -80 -48 0
v -80 -32 0
v -64 -32 0
v -80 -48 0
v -96 -48 0
v -96 -32 0
v -80 -32 0
v -96 -48 0
v -112 -48 0
v -112 -32 0
v -96 -32 0
v -112 -48 0
v -128 -48 0
v -128 -32 0
v -112 -32 0
v -128 -48 0
v -144 -48 0
v -144 -32 0
v -128 -32 0
v -144 -48 0
v -160 -48 0
v -160 -32 0
v -144 -32 0
v -160 -48 0
v -176 -48 0
v -176 -32 0
v -160 -32 0
v -176 -48 0
v -192 -48 0
v -192 -32 0
v -176 -32 0
v -192 -48 0
v -208 -48 0
v -208 -32 0
v -192 -32 0
v -208 -48 0
v -224 -48 0
v -224 -32 0
v -208 -32 0
v -224 -48 0
v -240 -48 0
v -240 -32 0
v -224 -32 0
v -240 -48 0
v -256 -48 0
v -256 -32 0
v -240 -32 0
v 0 -64 0
v -16 -64 0
v -16 -48 0
v 0 -48 0
v -16 -64 0
v -32 -64 0
v -32 -48 0
v -16 -48 0
v -32 -64 0
v -48 -64 0
v -48 -48 0
v -32 -48 0
v -48 -64 0
v -64 -64 0
v -64 -48 0
v -48 -48 0
v -64 -64 0
v -80 -64 0
v -80 -48 0
v -64 -48 0
v -80 -64 0
v -96 -64 0
v -96 -48 0
v -80 -48 0
v -96 -64 0
v -112 -64 0
v -112 -48 0
v -96 -48 0
v -112 -64 0
v -128 -64 0
v -128 -48 0
v -112 -48 0
v -128 -64 0
v -144 -64 0
v -144 -48 0
v -128 -48 0
v -144 -64 0
v -160 -64 0
v -160 -48 0
v -144 -48 0
v -160 -64 0
v -176 -64 0
v -176 -48 0
v -160 -48 0
v -176 -64 0
v -192 -64 0
v -192 -48 0
v -176 -48 0
v -192 -64 0
v -208 -64 0
v -208 -48 0
v -192 -48 0
v -208 -64 0
v -224 -64 0
v -224 -48 0
v -208 -48 0
v -224 -64 0
v -240 -64 0
v -240 -48 0
v -224 -48 0
v -240 -64 0
v -256 -64 0
v -256 -48 0
v -240 -48 0
v 0 -80 0
v -16 -80 0
v -16 -64 0
v 0 -64 0
v -16 -80 0
v -32 -80 0
v -32 -64 0
v -16 -64 0
v -32 -80 0
v -48 -80 0
v -48 -64 0
v -32 -64 0
v -48 -80 0
v -64 -80 0
v -64 -64 0
v -48 -64 0
v -64 -80 0
v -80 -80 0
v -80 -64 0
v -64 -64 0
v -80 -80 0
v -96 -80 0
v -96 -64 0
v -80 -64 0
v -96 -80 0
v -112 -80 0
v -112 -64 0
v -96 -64 0
v -112 -80 0
v -128 -80 0
v -128 -64 0
v -112 -64 0
v -128 -80 0
v -144 -80 0
v -144 -64 0
v -128 -64 0
v -144 -80 0
v -160 -80 0
v -160 -64 0
v -144 -64 0
v -160 -80 0
v -176 -80 0
v -176 -64 0
v -160 -64 0
v -176 -80 0
v -192 -80 0
v -192 -64 0
v -176 -64 0
v -192 -80 0
v -208 -80 0
v -208 -64 0
v -192 -64 0
v -208 -80 0
v -224 -80 0
v -224 -64 0
v -208 -64 0
v -224 -80 0
v -240 -80 0
v -240 -64 0
v -224 -64 0
v -240 -80 0
v -256 -80 0
v -256 -64 0
v -240 -64 0
v 0 -96 0
v -16 -96 0
v -16 -80 0
v 0 -80 0
v -16 -96 0
v -32 -96 0
v -32 -80 0
v -16 -80 0
v -32 -96 0
v -48 -96 0
v -48 -80 0
v -32 -80 0
v -48 -96 0
v -64 -96 0
v -64 -80 0
v -48 -80 0
v -64 -96 0
v -80 -96 0
v -80 -80 0
v -64 -80 0
v -80 -96 0
v -96 -96 0
v -96 -80 0
v -80 -80 0
v -96 -96 0
v -112 -96 0
v -112 -80 0
v -96 -80 0
v -112 -96 0
v -128 -96 0
v -128 -80 0
v -112 -80 0
v -128 -96 0
v -144 -96 0
v -144 -80 0
v -128 -80 0
v -144 -96 0
v -160 -96 0
v -160 -80 0
v -144 -80 0
v -160 -96 0
v -176 -96 0
v -176 -80 0
v -160 -80 0
v -176 -96 0
v -192 -96 0
v -192 -80 0
v -176 -80 0
v -192 -96 0
v -208 -96 0
v -208 -80 0
v -192 -80 0
v -208 -96 0
v -224 -96 0
v -224 -80 0
v -208 -80 0
v -224 -96 0
v -240 -96 0
v -240 -80 0
v -224 -80 0
v -240 -96 0
v -256 -96 0
v -256 -80 0
v -240 -80 0
v 0 -112 0
v -16 -112 0
v -16 -96 0
v 0 -96 0
v -16 -112 0
v -32 -112 0
v -32 -96 0
v -16 -96 0
v -32 -112 0
v -48 -112 0
v -48 -96 0
v -32 -96 0
v -48 -112 0
v -64 -112 0
v -64 -96 0
v -48 -96 0
v -64 -112 0
v -80 -112 0
v -80 -96 0
v -64 -96 0
v -80 -112 0
v -96 -112 0
v -96 -96 0
v -80 -96 0
v -96 -112 0
v -112 -112 0
v -112 -96 0
v -96 -96 0
v -112 -112 0
v -128 -112 0
v -128 -96 0
v -112 -96 0
v -128 -112 0
v -144 -112 0
v -144 -96 0
v -128 -96 0
v -144 -112 0
v -160 -112 0
v -160 -96 0
v -144 -96 0
v -160 -112 0
v -176 -112 0
v -176 -96 0
v -160 -96 0
v -176 -112 0
v -192 -112 0
v -192 -96 0
v -176 -96 0
v -192 -112 0
v -208 -112 0
v -208 -96 0
v -192 -96 0
v -208 -112 0
v -224 -112 0
v -224 -96 0
v -208 -96 0
v -224 -112 0
v -240 -112 0
v -240 -96 0
v -224 -96 0
v -240 -112 0
v -256 -112 0
v -256 -96 0
v -240 -96 0
v 0 -128 0
v -16 -128 0
v -16 -112 0
v 0 -112 0
v -16 -128 0
v -32 -128 0
v -32 -112 0
v -16 -112 0
v -32 -128 0
v -48 -128 0
v -48 -112 0
v -32 -112 0
v -48 -128 0
v -64 -128 0
v -64 -112 0
v -48 -112 0
v -64 -128 0
v -80 -128 0
v -80 -112 0
v -64 -112 0
v -80 -128 0
v -96 -128 0
v -96 -112 0
v -80 -112 0
v -96 -128 0
v -112 -128 0
v -112 -112 0
v -96 -112 0
v -112 -128 0
v -128 -128 0
v -128 -112 0
v -112 -112 0
v -128 -128 0
v -144 -128 0
v -144 -112 0
v -128 -112 0
v -144 -128 0
v -160 -128 0
v -160 -112 0
v -144 -112 0
v -160 -128 0
v -176 -128 0
v -176 -112 0
v -160 -112 0
v -176 -128 0
v -192 -128 0
v -192 -112 0
v -176 -112 0
v -192 -128 0
v -208 -128 0
v -208 -112 0
v -192 -112 0
v -208 -128 0
v -224 -128 0
v -224 -112 0
v -208 -112 0
v -224 -128 0
v -240 -128 0
v -240 -112 0
v -224 -112 0
v -240 -128 0
v -256 -128 0
v -256 -112 0
v -240 -112 0
v 0 -144 0
v -16 -144 0
v -16 -128 0
v 0 -128 0
v -16 -144 0
v -32 -144 0
v -32 -128 0
v -16 -128 0
v -32 -144 0
v -48 -144 0
v -48 -128 0
v -32 -128 0
v -48 -144 0
v -64 -144 0
v -64 -128 0
v -48 -128 0
v -64 -144 0
v -80 -144 0
v -80 -128 0
v -64 -128 0
v -80 -144 0
v -96 -144 0
v -96 -128 0
v -80 -128 0
v -96 -144 0
v -112 -144 0
v -112 -128 0
v -96 -128 0
v -112 -144 0
v -128 -144 0
v -128 -128 0
v -112 -128 0
v -128 -144 0
v -144 -144 0
v -144 -128 0
v -128 -128 0
v -144 -144 0
v -160 -144 0
v -160 -128 0
v -144 -128 0
v -160 -144 0
v -176 -144 0
v -176 -128 0
v -160 -128 0
v -176 -144 0
v -192 -144 0
v -192 -128 0
v -176 -128 0
v -192 -144 0
v -208 -144 0
v -208 -128 0
v -192 -128 0
v -208 -144 0
v -224 -144 0
v -224 -128 0
v -208 -128 0
v -224 -144 0
v -240 -144 0
v -240 -128 0
v -224 -128 0
v -240 -144 0
v -256 -144 0
v -256 -128 0
v -240 -128 0
v 0 -160 0
v -16 -160 0
v -16 -144 0
v 0 -144 0
v -16 -160 0
v -32 -160 0
v -32 -144 0
v -16 -144 0
v -32 -160 0
v -48 -160 0
v -48 -144 0
v -32 -144 0
v -48 -160 0
v -64 -160 0
v -64 -144 0
v -48 -144 0
v -64 -160 0
v -80 -160 0
v -80 -144 0
v -64 -144 0
v -80 -160 0
v -96 -160 0
v -96 -144 0
v -80 -144 0
v -96 -160 0
v -112 -160 0
v -112 -144 0
v -96 -144 0
v -112 -160 0
v -128 -160 0
v -128 -144 0
v -112 -144 0
v -128 -160 0
v -144 -160 0
v -144 -144 0
v -128 -144 0
v -144 -160 0
v -160 -160 0
v -160 -144 0
v -144 -144 0
v -160 -160 0
v -176 -160 0
v -176 -144 0
v -160 -144 0
v -176 -160 0
v -192 -160 0
v -192 -144 0
v -176 -144 0
v -192 -160 0
v -208 -160 0
v -208 -144 0
v -192 -144 0
v -208 -160 0
v -224 -160 0
v -224 -144 0
v -208 -144 0
v -224 -160 0
v -240 -160 0
v -240 -144 0
v -224 -144 0
v -240 -160 0
v -256 -160 0
v -256 -144 0
v -240 -144 0
v 0 -176 0
v -16 -176 0
v -16 -160 0
v 0 -160 0
v -16 -176 0
v -32 -176 0
v -32 -160 0
v -16 -160 0
v -32 -176 0
v -48 -176 0
v -48 -160 0
v -32 -160 0
v -48 -176 0
v -64 -176 0
v -64 -160 0
v -48 -160 0
v -64 -176 0
v -80 -176 0
v -80 -160 0
v -64 -160 0
v -80 -176 0
v -96 -176 0
v -96 -160 0
v -80 -160 0
v -96 -176 0
v -112 -176 0
v -112 -160 0
v -96 -160 0
v -112 -176 0
v -128 -176 0
v -128 -160 0
v -112 -160 0
v -128 -176 0
v -144 -176 0
v -144 -160 0
v -128 -160 0
v -144 -176 0
v -160 -176 0
v -160 -160 0
v -144 -160 0
v -160 -176 0
v -176 -176 0
v -176 -160 0
v -160 -160 0
v -176 -176 0
v -192 -176 0
v -192 -160 0
v -176 -160 0
v -192 -176 0
v -208 -176 0
v -208 -160 0
v -192 -160 0
v -208 -176 0
v -224 -176 0
v -224 -160 0
v -208 -160 0
v -224 -176 0
v -240 -176 0
v -240 -160 0
v -224 -160 0
v -240 -176 0
v -256 -176 0
v -256 -160 0
v -240 -160 0
v 0 -192 0
v -16 -192 0
v -16 -176 0
v 0 -176 0
v -16 -192 0
v -32 -192 0
v -32 -176 0
v -16 -176 0
v -32 -192 0
v -48 -192 0
v -48 -176 0
v -32 -176 0
v -48 -192 0
v -64 -192 0
v -64 -176 0
v -48 -176 0
v -64 -192 0
v -80 -192 0
v -80 -176 0
v -64 -176 0
v -80 -192 0
v -96 -192 0
v -96 -176 0
v -80 -176 0
v -96 -192 0
v -112 -192 0
v -112 -176 0
v -96 -176 0
v -112 -192 0
v -128 -192 0
v -128 -176 0
v -112 -176 0
v -128 -192 0
v -144 -192 0
v -144 -176 0
v -128 -176 0
v -144 -192 0
v -160 -192 0
v -160 -176 0
v -144 -176 0
v -160 -192 0
v -176 -192 0
v -176 -176 0
v -160 -176 0
v -176 -192 0
v -192 -192 0
v -192 -176 0
v -176 -176 0
v -192 -192 0
v -208 -192 0
v -208 -176 0
v -192 -176 0
v -208 -192 0
v -224 -192 0
v -224 -176 0
v -208 -176 0
v -224 -192 0
v -240 -192 0
v -240 -176 0
v -224 -176 0
v -240 -192 0
v -256 -192 0
v -256 -176 0
v -240 -176 0
v 0 -208 0
v -16 -208 0
v -16 -192 0
v 0 -192 0
v -16 -208 0
v -32 -208 0
v -32 -192 0
v -16 -192 0
v -32 -208 0
v -48 -208 0
v -48 -192 0
v -32 -192 0
v -48 -208 0
v -64 -208 0
v -64 -192 0
v -48 -192 0
v -64 -208 0
v -80 -208 0
v -80 -192 0
v -64 -192 0
v -80 -208 0
v -96 -208 0
v -96 -192 0
v -80 -192 0
v -96 -208 0
v -112 -208 0
v -112 -192 0
v -96 -192 0
v -112 -208 0
v -128 -208 0
v -128 -192 0
v -112 -192 0
v -128 -208 0
v -144 -208 0
v -144 -192 0
v -128 -192 0
v -144 -208 0
v -160 -208 0
v -160 -192 0
v -144 -192 0
v -160 -208 0
v -176 -208 0
v -176 -192 0
v -160 -192 0
v -176 -208 0
v -192 -208 0
v -192 -192 0
v -176 -192 0
v -192 -208 0
v -208 -208 0
v -208 -192 0
v -192 -192 0
v -208 -208 0
v -224 -208 0
v -224 -192 0
v -208 -192 0
v -224 -208 0
v -240 -208 0
v -240 -192 0
v -224 -192 0
v -240 -208 0
v -256 -208 0
v -256 -192 0
v -240 -192 0
v 0 -224 0
v -16 -224 0
v -16 -208 0
v 0 -208 0
v -16 -224 0
v -32 -224 0
v -32 -208 0
v -16 -208 0
v -32 -224 0
v -48 -224 0
v -48 -208 0
v -32 -208 0
v -48 -224 0
v -64 -224 0
v -64 -208 0
v -48 -208 0
v -64 -224 0
v -80 -224 0
v -80 -208 0
v -64 -208 0
v -80 -224 0
v -96 -224 0
v -96 -208 0
v -80 -208 0
v -96 -224 0
v -112 -224 0
v -112 -208 0
v -96 -208 0
v -112 -224 0
v -128 -224 0
v -128 -208 0
v -112 -208 0
v -128 -224 0
v -144 -224 0
v -144 -208 0
v -128 -208 0
v -144 -224 0
v -160 -224 0
v -160 -208 0
v -144 -208 0
v -160 -224 0
v -176 -224 0
v -176 -208 0
v -160 -208 0
v -176 -224 0
v -192 -224 0
v -192 -208 0
v -176 -208 0
v -192 -224 0
v -208 -224 0
v -208 -208 0
v -192 -208 0
v -208 -224 0
v -224 -224 0
v -224 -208 0
v -208 -208 0
v -224 -224 0
v -240 -224 0
v -240 -208 0
v -224 -208 0
v -240 -224 0
v -256 -224 0
v -256 -208 0
v -240 -208 0
v 0 -240 0
v -16 -240 0
v -16 -224 0
v 0 -224 0
v -16 -240 0
v -32 -240 0
v -32 -224 0
v -16 -224 0
v -32 -240 0
v -48 -240 0
v -48 -224 0
v -32 -224 0
v -48 -240 0
v -64 -240 0
v -64 -224 0
v -48 -224 0
v -64 -240 0
v -80 -240 0
v -80 -224 0
v -64 -224 0
v -80 -240 0
v -96 -240 0
v -96 -224 0
v -80 -224 0
v -96 -240 0
v -112 -240 0
v -112 -224 0
v -96 -224 0
v -112 -240 0
v -128 -240 0
v -128 -224 0
v -112 -224 0
v -128 -240 0
v -144 -240 0
v -144 -224 0
v -128 -224 0
v -144 -240 0
v -160 -240 0
v -160 -224 0
v -144 -224 0
v -160 -240 0
v -176 -240 0
v -176 -224 0
v -160 -224 0
v -176 -240 0
v -192 -240 0
v -192 -224 0
v -176 -224 0
v -192 -240 0
v -208 -240 0
v -208 -224 0
v -192 -224 0
v -208 -240 0
v -224 -240 0
v -224 -224 0
v -208 -224 0
v -224 -240 0
v -240 -240 0
v -240 -224 0
v -224 -224 0
v -240 -240 0
v -256 -240 0
v -256 -224 0
v -240 -224 0
v 0 -256 0
v -16 -256 0
v -16 -240 0
v 0 -240 0
v -16 -256 0
v -32 -256 0
v -32 -240 0
v -16 -240 0
v -32 -256 0
v -48 -256 0
v -48 -240 0
v -32 -240 0
v -48 -256 0
v -64 -256 0
v -64 -240 0
v -48 -240 0
v -64 -256 0
v -80 -256 0
v -80 -240 0
v -64 -240 0
v -80 -256 0
v -96 -256 0
v -96 -240 0
v -80 -240 0
v -96 -256 0
v -112 -256 0
v -112 -240 0
v -96 -240 0
v -112 -256 0
v -128 -256 0
v -128 -240 0
v -112 -240 0
v -128 -256 0
v -144 -256 0
v -144 -240 0
v -128 -240 0
v -144 -256 0
v -160 -256 0
v -160 -240 0
v -144 -240 0
v -160 -256 0
v -176 -256 0
v -176 -240 0
v -160 -240 0
v -176 -256 0
v -192 -256 0
v -192 -240 0
v -176 -240 0
v -192 -256 0
v -208 -256 0
v -208 -240 0
v -192 -240 0
v -208 -256 0
v -224 -256 0
v -224 -240 0
v -208 -240 0
v -224 -256 0
v -240 -256 0
v -240 -240 0
v -224 -240 0
v -240 -256 0
v -256 -256 0
v -256 -240 0
v -240 -240 0

# Texture cooridinates (Count = 16)
vt 0.3333333 0.6666666
vt 0.6666667 0.6666666
vt 0.6666667 1
vt 0.3333333 1
vt 1 0.6666666
vt 1 1
vt 0 0.6666666
vt 0 1
vt 0.3333333 0.3333333
vt 0.6666667 0.3333333
vt 1 0.3333333
vt 0 0.3333333
vt 0.3333333 0
vt 0.6666667 0
vt 1 0
vt 0 0

# Normal
vn 0 0 -1

# Mesh description
g mapadefenitivo_mesh_0051

# Faces
f 1/1/1 2/2/1 3/3/1 4/4/1
f 5/2/1 6/5/1 7/6/1 8/3/1
f 9/7/1 10/1/1 11/4/1 12/8/1
f 13/1/1 14/2/1 15/3/1 16/4/1
f 17/2/1 18/5/1 19/6/1 20/3/1
f 21/7/1 22/1/1 23/4/1 24/8/1
f 25/1/1 26/2/1 27/3/1 28/4/1
f 29/2/1 30/5/1 31/6/1 32/3/1
f 33/7/1 34/1/1 35/4/1 36/8/1
f 37/1/1 38/2/1 39/3/1 40/4/1
f 41/2/1 42/5/1 43/6/1 44/3/1
f 45/7/1 46/1/1 47/4/1 48/8/1
f 49/1/1 50/2/1 51/3/1 52/4/1
f 53/2/1 54/5/1 55/6/1 56/3/1
f 57/7/1 58/1/1 59/4/1 60/8/1
f 61/1/1 62/2/1 63/3/1 64/4/1
f 65/9/1 66/10/1 67/2/1 68/1/1
f 69/10/1 70/11/1 71/5/1 72/2/1
f 73/12/1 74/9/1 75/1/1 76/7/1
f 77/9/1 78/10/1 79/2/1 80/1/1
f 81/10/1 82/11/1 83/5/1 84/2/1
f 85/12/1 86/9/1 87/1/1 88/7/1
f 89/9/1 90/10/1 91/2/1 92/1/1
f 93/10/1 94/11/1 95/5/1 96/2/1
f 97/12/1 98/9/1 99/1/1 100/7/1
f 101/9/1 102/10/1 103/2/1 104/1/1
f 105/10/1 106/11/1 107/5/1 108/2/1
f 109/12/1 110/9/1 111/1/1 112/7/1
f 113/9/1 114/10/1 115/2/1 116/1/1
f 117/10/1 118/11/1 119/5/1 120/2/1
f 121/12/1 122/9/1 123/1/1 124/7/1
f 125/9/1 126/10/1 127/2/1 128/1/1
f 129/13/1 130/14/1 131/10/1 132/9/1
f 133/14/1 134/15/1 135/11/1 136/10/1
f 137/16/1 138/13/1 139/9/1 140/12/1
f 141/13/1 142/14/1 143/10/1 144/9/1
f 145/14/1 146/15/1 147/11/1 148/10/1
f 149/16/1 150/13/1 151/9/1 152/12/1
f 153/13/1 154/14/1 155/10/1 156/9/1
f 157/14/1 158/15/1 159/11/1 160/10/1
f 161/16/1 162/13/1 163/9/1 164/12/1
f 165/13/1 166/14/1 167/10/1 168/9/1
f 169/14/1 170/15/1 171/11/1 172/10/1
f 173/16/1 174/13/1 175/9/1 176/12/1
f 177/13/1 178/14/1 179/10/1 180/9/1
f 181/14/1 182/15/1 183/11/1 184/10/1
f 185/16/1 186/13/1 187/9/1 188/12/1
f 189/13/1 190/14/1 191/10/1 192/9/1
f 193/1/1 194/2/1 195/3/1 196/4/1
f 197/2/1 198/5/1 199/6/1 200/3/1
f 201/7/1 202/1/1 203/4/1 204/8/1
f 205/1/1 206/2/1 207/3/1 208/4/1
f 209/2/1 210/5/1 211/6/1 212/3/1
f 213/7/1 214/1/1 215/4/1 216/8/1
f 217/1/1 218/2/1 219/3/1 220/4/1
f 221/2/1 222/5/1 223/6/1 224/3/1
f 225/7/1 226/1/1 227/4/1 228/8/1
f 229/1/1 230/2/1 231/3/1 232/4/1
f 233/2/1 234/5/1 235/6/1 236/3/1
f 237/7/1 238/1/1 239/4/1 240/8/1
f 241/1/1 242/2/1 243/3/1 244/4/1
f 245/2/1 246/5/1 247/6/1 248/3/1
f 249/7/1 250/1/1 251/4/1 252/8/1
f 253/1/1 254/2/1 255/3/1 256/4/1
f 257/9/1 258/10/1 259/2/1 260/1/1
f 261/10/1 262/11/1 263/5/1 264/2/1
f 265/12/1 266/9/1 267/1/1 268/7/1
f 269/9/1 270/10/1 271/2/1 272/1/1
f 273/10/1 274/11/1 275/5/1 276/2/1
f 277/12/1 278/9/1 279/1/1 280/7/1
f 281/9/1 282/10/1 283/2/1 284/1/1
f 285/10/1 286/11/1 287/5/1 288/2/1
f 289/12/1 290/9/1 291/1/1 292/7/1
f 293/9/1 294/10/1 295/2/1 296/1/1
f 297/10/1 298/11/1 299/5/1 300/2/1
f 301/12/1 302/9/1 303/1/1 304/7/1
f 305/9/1 306/10/1 307/2/1 308/1/1
f 309/10/1 310/11/1 311/5/1 312/2/1
f 313/12/1 314/9/1 315/1/1 316/7/1
f 317/9/1 318/10/1 319/2/1 320/1/1
f 321/13/1 322/14/1 323/10/1 324/9/1
f 325/14/1 326/15/1 327/11/1 328/10/1
f 329/16/1 330/13/1 331/9/1 332/12/1
f 333/13/1 334/14/1 335/10/1 336/9/1
f 337/14/1 338/15/1 339/11/1 340/10/1
f 341/16/1 342/13/1 343/9/1 344/12/1
f 345/13/1 346/14/1 347/10/1 348/9/1
f 349/14/1 350/15/1 351/11/1 352/10/1
f 353/16/1 354/13/1 355/9/1 356/12/1
f 357/13/1 358/14/1 359/10/1 360/9/1
f 361/14/1 362/15/1 363/11/1 364/10/1
f 365/16/1 366/13/1 367/9/1 368/12/1
f 369/13/1 370/14/1 371/10/1 372/9/1
f 373/14/1 374/15/1 375/11/1 376/10/1
f 377/16/1 378/13/1 379/9/1 380/12/1
f 381/13/1 382/14/1 383/10/1 384/9/1
f 385/1/1 386/2/1 387/3/1 388/4/1
f 389/2/1 390/5/1 391/6/1 392/3/1
f 393/7/1 394/1/1 395/4/1 396/8/1
f 397/1/1 398/2/1 399/3/1 400/4/1
f 401/2/1 402/5/1 403/6/1 404/3/1
f 405/7/1 406/1/1 407/4/1 408/8/1
f 409/1/1 410/2/1 411/3/1 412/4/1
f 413/2/1 414/5/1 415/6/1 416/3/1
f 417/7/1 418/1/1 419/4/1 420/8/1
f 421/1/1 422/2/1 423/3/1 424/4/1
f 425/2/1 426/5/1 427/6/1 428/3/1
f 429/7/1 430/1/1 431/4/1 432/8/1
f 433/1/1 434/2/1 435/3/1 436/4/1
f 437/2/1 438/5/1 439/6/1 440/3/1
f 441/7/1 442/1/1 443/4/1 444/8/1
f 445/1/1 446/2/1 447/3/1 448/4/1
f 449/9/1 450/10/1 451/2/1 452/1/1
f 453/10/1 454/11/1 455/5/1 456/2/1
f 457/12/1 458/9/1 459/1/1 460/7/1
f 461/9/1 462/10/1 463/2/1 464/1/1
f 465/10/1 466/11/1 467/5/1 468/2/1
f 469/12/1 470/9/1 471/1/1 472/7/1
f 473/9/1 474/10/1 475/2/1 476/1/1
f 477/10/1 478/11/1 479/5/1 480/2/1
f 481/12/1 482/9/1 483/1/1 484/7/1
f 485/9/1 486/10/1 487/2/1 488/1/1
f 489/10/1 490/11/1 491/5/1 492/2/1
f 493/12/1 494/9/1 495/1/1 496/7/1
f 497/9/1 498/10/1 499/2/1 500/1/1
f 501/10/1 502/11/1 503/5/1 504/2/1
f 505/12/1 506/9/1 507/1/1 508/7/1
f 509/9/1 510/10/1 511/2/1 512/1/1
f 513/13/1 514/14/1 515/10/1 516/9/1
f 517/14/1 518/15/1 519/11/1 520/10/1
f 521/16/1 522/13/1 523/9/1 524/12/1
f 525/13/1 526/14/1 527/10/1 528/9/1
f 529/14/1 530/15/1 531/11/1 532/10/1
f 533/16/1 534/13/1 535/9/1 536/12/1
f 537/13/1 538/14/1 539/10/1 540/9/1
f 541/14/1 542/15/1 543/11/1 544/10/1
f 545/16/1 546/13/1 547/9/1 548/12/1
f 549/13/1 550/14/1 551/10/1 552/9/1
f 553/14/1 554/15/1 555/11/1 556/10/1
f 557/16/1 558/13/1 559/9/1 560/12/1
f 561/13/1 562/14/1 563/10/1 564/9/1
f 565/14/1 566/15/1 567/11/1 568/10/1
f 569/16/1 570/13/1 571/9/1 572/12/1
f 573/13/1 574/14/1 575/10/1 576/9/1
f 577/1/1 578/2/1 579/3/1 580/4/1
f 581/2/1 582/5/1 583/6/1 584/3/1
f 585/7/1 586/1/1 587/4/1 588/8/1
f 589/1/1 590/2/1 591/3/1 592/4/1
f 593/2/1 594/5/1 595/6/1 596/3/1
f 597/7/1 598/1/1 599/4/1 600/8/1
f 601/1/1 602/2/1 603/3/1 604/4/1
f 605/2/1 606/5/1 607/6/1 608/3/1
f 609/7/1 610/1/1 611/4/1 612/8/1
f 613/1/1 614/2/1 615/3/1 616/4/1
f 617/2/1 618/5/1 619/6/1 620/3/1
f 621/7/1 622/1/1 623/4/1 624/8/1
f 625/1/1 626/2/1 627/3/1 628/4/1
f 629/2/1 630/5/1 631/6/1 632/3/1
f 633/7/1 634/1/1 635/4/1 636/8/1
f 637/1/1 638/2/1 639/3/1 640/4/1
f 641/9/1 642/10/1 643/2/1 644/1/1
f 645/10/1 646/11/1 647/5/1 648/2/1
f 649/12/1 650/9/1 651/1/1 652/7/1
f 653/9/1 654/10/1 655/2/1 656/1/1
f 657/10/1 658/11/1 659/5/1 660/2/1
f 661/12/1 662/9/1 663/1/1 664/7/1
f 665/9/1 666/10/1 667/2/1 668/1/1
f 669/10/1 670/11/1 671/5/1 672/2/1
f 673/12/1 674/9/1 675/1/1 676/7/1
f 677/9/1 678/10/1 679/2/1 680/1/1
f 681/10/1 682/11/1 683/5/1 684/2/1
f 685/12/1 686/9/1 687/1/1 688/7/1
f 689/9/1 690/10/1 691/2/1 692/1/1
f 693/10/1 694/11/1 695/5/1 696/2/1
f 697/12/1 698/9/1 699/1/1 700/7/1
f 701/9/1 702/10/1 703/2/1 704/1/1
f 705/13/1 706/14/1 707/10/1 708/9/1
f 709/14/1 710/15/1 711/11/1 712/10/1
f 713/16/1 714/13/1 715/9/1 716/12/1
f 717/13/1 718/14/1 719/10/1 720/9/1
f 721/14/1 722/15/1 723/11/1 724/10/1
f 725/16/1 726/13/1 727/9/1 728/12/1
f 729/13/1 730/14/1 731/10/1 732/9/1
f 733/14/1 734/15/1 735/11/1 736/10/1
f 737/16/1 738/13/1 739/9/1 740/12/1
f 741/13/1 742/14/1 743/10/1 744/9/1
f 745/14/1 746/15/1 747/11/1 748/10/1
f 749/16/1 750/13/1 751/9/1 752/12/1
f 753/13/1 754/14/1 755/10/1 756/9/1
f 757/14/1 758/15/1 759/11/1 760/10/1
f 761/16/1 762/13/1 763/9/1 764/12/1
f 765/13/1 766/14/1 767/10/1 768/9/1
f 769/1/1 770/2/1 771/3/1 772/4/1
f 773/2/1 774/5/1 775/6/1 776/3/1
f 777/7/1 778/1/1 779/4/1 780/8/1
f 781/1/1 782/2/1 783/3/1 784/4/1
f 785/2/1 786/5/1 787/6/1 788/3/1
f 789/7/1 790/1/1 791/4/1 792/8/1
f 793/1/1 794/2/1 795/3/1 796/4/1
f 797/2/1 798/5/1 799/6/1 800/3/1
f 801/7/1 802/1/1 803/4/1 804/8/1
f 805/1/1 806/2/1 807/3/1 808/4/1
f 809/2/1 810/5/1 811/6/1 812/3/1
f 813/7/1 814/1/1 815/4/1 816/8/1
f 817/1/1 818/2/1 819/3/1 820/4/1
f 821/2/1 822/5/1 823/6/1 824/3/1
f 825/7/1 826/1/1 827/4/1 828/8/1
f 829/1/1 830/2/1 831/3/1 832/4/1
f 833/9/1 834/10/1 835/2/1 836/1/1
f 837/10/1 838/11/1 839/5/1 840/2/1
f 841/12/1 842/9/1 843/1/1 844/7/1
f 845/9/1 846/10/1 847/2/1 848/1/1
f 849/10/1 850/11/1 851/5/1 852/2/1
f 853/12/1 854/9/1 855/1/1 856/7/1
f 857/9/1 858/10/1 859/2/1 860/1/1
f 861/10/1 862/11/1 863/5/1 864/2/1
f 865/12/1 866/9/1 867/1/1 868/7/1
f 869/9/1 870/10/1 871/2/1 872/1/1
f 873/10/1 874/11/1 875/5/1 876/2/1
f 877/12/1 878/9/1 879/1/1 880/7/1
f 881/9/1 882/10/1 883/2/1 884/1/1
f 885/10/1 886/11/1 887/5/1 888/2/1
f 889/12/1 890/9/1 891/1/1 892/7/1
f 893/9/1 894/10/1 895/2/1 896/1/1
f 897/13/1 898/14/1 899/10/1 900/9/1
f 901/14/1 902/15/1 903/11/1 904/10/1
f 905/16/1 906/13/1 907/9/1 908/12/1
f 909/13/1 910/14/1 911/10/1 912/9/1
f 913/14/1 914/15/1 915/11/1 916/10/1
f 917/16/1 918/13/1 919/9/1 920/12/1
f 921/13/1 922/14/1 923/10/1 924/9/1
f 925/14/1 926/15/1 927/11/1 928/10/1
f 929/16/1 930/13/1 931/9/1 932/12/1
f 933/13/1 934/14/1 935/10/1 936/9/1
f 937/14/1 938/15/1 939/11/1 940/10/1
f 941/16/1 942/13/1 943/9/1 944/12/1
f 945/13/1 946/14/1 947/10/1 948/9/1
f 949/14/1 950/15/1 951/11/1 952/10/1
f 953/16/1 954/13/1 955/9/1 956/12/1
f 957/13/1 958/14/1 959/10/1 960/9/1
f 961/1/1 962/2/1 963/3/1 964/4/1
f 965/2/1 966/5/1 967/6/1 968/3/1
f 969/7/1 970/1/1 971/4/1 972/8/1
f 973/1/1 974/2/1 975/3/1 976/4/1
f 977/2/1 978/5/1 979/6/1 980/3/1
f 981/7/1 982/1/1 983/4/1 984/8/1
f 985/1/1 986/2/1 987/3/1 988/4/1
f 989/2/1 990/5/1 991/6/1 992/3/1
f 993/7/1 994/1/1 995/4/1 996/8/1
f 997/1/1 998/2/1 999/3/1 1000/4/1
f 1001/2/1 1002/5/1 1003/6/1 1004/3/1
f 1005/7/1 1006/1/1 1007/4/1 1008/8/1
f 1009/1/1 1010/2/1 1011/3/1 1012/4/1
f 1013/2/1 1014/5/1 1015/6/1 1016/3/1
f 1017/7/1 1018/1/1 1019/4/1 1020/8/1
f 1021/1/1 1022/2/1 1023/3/1 1024/4/1

