# Tiled2Unity generated file. Do not modify by hand.
# Wavefront file for 'mapadefenitivo_mesh_0073.obj'

# Vertices (Count = 24)
v -224 -176 0
v -240 -176 0
v -240 -160 0
v -224 -160 0
v -240 -176 0
v -256 -176 0
v -256 -160 0
v -240 -160 0
v -224 -192 0
v -240 -192 0
v -240 -176 0
v -224 -176 0
v -240 -192 0
v -256 -192 0
v -256 -176 0
v -240 -176 0
v -224 -208 0
v -240 -208 0
v -240 -192 0
v -224 -192 0
v -240 -208 0
v -256 -208 0
v -256 -192 0
v -240 -192 0

# Texture cooridinates (Count = 12)
vt 0 0.6666666
vt 0.3333333 0.6666666
vt 0.3333333 1
vt 0 1
vt 0.6666667 0.6666666
vt 0.6666667 1
vt 0 0.3333333
vt 0.3333333 0.3333333
vt 0.6666667 0.3333333
vt 0 0
vt 0.3333333 0
vt 0.6666667 0

# Normal
vn 0 0 -1

# Mesh description
g mapadefenitivo_mesh_0073

# Faces
f 1/1/1 2/2/1 3/3/1 4/4/1
f 5/2/1 6/5/1 7/6/1 8/3/1
f 9/7/1 10/8/1 11/2/1 12/1/1
f 13/8/1 14/9/1 15/5/1 16/2/1
f 17/10/1 18/11/1 19/8/1 20/7/1
f 21/11/1 22/12/1 23/9/1 24/8/1

