# Tiled2Unity generated file. Do not modify by hand.
# Wavefront file for 'mapadefenitivo_mesh_0074.obj'

# Vertices (Count = 36)
v -144 -208 0
v -160 -208 0
v -160 -192 0
v -144 -192 0
v -160 -208 0
v -176 -208 0
v -176 -192 0
v -160 -192 0
v -176 -208 0
v -192 -208 0
v -192 -192 0
v -176 -192 0
v -144 -224 0
v -160 -224 0
v -160 -208 0
v -144 -208 0
v -160 -224 0
v -176 -224 0
v -176 -208 0
v -160 -208 0
v -176 -224 0
v -192 -224 0
v -192 -208 0
v -176 -208 0
v -144 -240 0
v -160 -240 0
v -160 -224 0
v -144 -224 0
v -160 -240 0
v -176 -240 0
v -176 -224 0
v -160 -224 0
v -176 -240 0
v -192 -240 0
v -192 -224 0
v -176 -224 0

# Texture cooridinates (Count = 16)
vt 0 0.6666666
vt 0.3333333 0.6666666
vt 0.3333333 1
vt 0 1
vt 0.6666667 0.6666666
vt 0.6666667 1
vt 1 0.6666666
vt 1 1
vt 0 0.3333333
vt 0.3333333 0.3333333
vt 0.6666667 0.3333333
vt 1 0.3333333
vt 0 0
vt 0.3333333 0
vt 0.6666667 0
vt 1 0

# Normal
vn 0 0 -1

# Mesh description
g mapadefenitivo_mesh_0074

# Faces
f 1/1/1 2/2/1 3/3/1 4/4/1
f 5/2/1 6/5/1 7/6/1 8/3/1
f 9/5/1 10/7/1 11/8/1 12/6/1
f 13/9/1 14/10/1 15/2/1 16/1/1
f 17/10/1 18/11/1 19/5/1 20/2/1
f 21/11/1 22/12/1 23/7/1 24/5/1
f 25/13/1 26/14/1 27/10/1 28/9/1
f 29/14/1 30/15/1 31/11/1 32/10/1
f 33/15/1 34/16/1 35/12/1 36/11/1

