# Tiled2Unity generated file. Do not modify by hand.
# Wavefront file for 'mapadefenitivo_mesh_0082.obj'

# Vertices (Count = 20)
v -224 -16 0
v -240 -16 0
v -240 0 0
v -224 0 0
v -240 -16 0
v -256 -16 0
v -256 0 0
v -240 0 0
v -224 -32 0
v -240 -32 0
v -240 -16 0
v -224 -16 0
v -224 -48 0
v -240 -48 0
v -240 -32 0
v -224 -32 0
v -240 -48 0
v -256 -48 0
v -256 -32 0
v -240 -32 0

# Texture cooridinates (Count = 4)
vt 0.125 0.2727273
vt 0.25 0.2727273
vt 0.25 0.3181818
vt 0.125 0.3181818

# Normal
vn 0 0 -1

# Mesh description
g mapadefenitivo_mesh_0082

# Faces
f 1/1/1 2/2/1 3/3/1 4/4/1
f 5/1/1 6/2/1 7/3/1 8/4/1
f 9/1/1 10/2/1 11/3/1 12/4/1
f 13/1/1 14/2/1 15/3/1 16/4/1
f 17/1/1 18/2/1 19/3/1 20/4/1

